<svg width="99" height="32" viewBox="0 0 99 32" fill="none" xmlns="http://www.w3.org/2000/svg">
<path d="M23.1146 10.8963L19.2345 7.01614C18.6498 6.43142 17.8573 6.10327 17.0306 6.10327H11.5428C10.7161 6.10327 9.92364 6.43142 9.33892 7.01614L5.45877 10.8963C4.87404 11.481 4.5459 12.2735 4.5459 13.1002V18.5879C4.5459 19.4147 4.87404 20.2071 5.45877 20.7919L9.33892 24.672C9.92364 25.2567 10.7161 25.5849 11.5428 25.5849H17.0306C17.8573 25.5849 18.6498 25.2567 19.2345 24.672L23.1146 20.7919C23.6994 20.2071 24.0275 19.4147 24.0275 18.5879V13.1002C24.0275 12.2735 23.6994 11.481 23.1146 10.8963ZM19.096 19.3676C18.7039 19.3676 18.3763 18.2202 18.2879 16.6767C18.1942 19.0865 17.6996 20.9257 17.1033 20.9257C16.6198 20.9257 16.2032 19.7167 16.013 17.9747C15.7954 21.1386 15.1053 23.4513 14.2873 23.4513C13.4692 23.4513 12.7792 21.1386 12.5616 17.9747C12.3714 19.7167 11.9548 20.9257 11.4713 20.9257C10.8749 20.9257 10.3804 19.0871 10.2867 16.6767C10.1983 18.2202 9.87012 19.3676 9.47855 19.3676C9.01892 19.3676 8.64597 17.7903 8.64597 15.8441C8.64597 13.8979 9.01892 12.3206 9.47855 12.3206C9.8707 12.3206 10.1983 13.4679 10.2867 15.0115C10.3804 12.601 10.8749 10.7625 11.4713 10.7625C11.9548 10.7625 12.3714 11.9715 12.5616 13.7135C12.7792 10.5495 13.4692 8.2368 14.2873 8.2368C15.1053 8.2368 15.7954 10.5495 16.013 13.7135C16.2032 11.9715 16.6198 10.7625 17.1033 10.7625C17.6996 10.7625 18.1942 12.601 18.2879 15.0115C18.3763 13.4679 18.7044 12.3206 19.096 12.3206C19.5556 12.3206 19.9286 13.8979 19.9286 15.8441C19.9286 17.7903 19.5556 19.3676 19.096 19.3676Z" fill="white"/>
<path d="M36.9886 11.5489C36.3032 11.2283 35.3316 11.0671 34.0725 11.0671C31.715 11.0671 30.5362 11.635 30.5362 12.7707C30.5362 13.2274 30.6962 13.5544 31.0174 13.7516C31.338 13.9494 31.8564 14.085 32.5726 14.1589L37.5716 14.6034C38.954 14.7268 40.0088 15.0881 40.7372 15.6862C41.4657 16.2849 41.8299 17.2198 41.8299 18.4911C41.8299 20.0708 41.194 21.1878 39.9233 21.8418C38.652 22.4958 36.7756 22.8233 34.2948 22.8233C31.8139 22.8233 30.0487 22.4684 28.778 21.7586C27.5067 21.0488 26.8463 19.799 26.7969 18.0094H30.0737C30.1476 18.9973 30.5455 19.6728 31.2681 20.037C31.9902 20.4012 33.0363 20.5833 34.4059 20.5833C37.109 20.5833 38.4606 19.9538 38.4606 18.6948C38.4606 18.1519 38.2907 17.7627 37.9515 17.5282C37.6117 17.2937 37.1154 17.146 36.4615 17.0837L31.4811 16.5839C30.0859 16.4483 29.0276 16.1022 28.3061 15.5471C27.5841 14.9915 27.2233 14.1281 27.2233 12.9551C27.2233 10.2276 29.5314 8.86377 34.1476 8.86377C36.3934 8.86377 38.1493 9.19715 39.4148 9.86333C40.6796 10.5295 41.3371 11.653 41.3865 13.2326H38.1097C38.0475 12.4303 37.6745 11.8689 36.9897 11.5477L36.9886 11.5489Z" fill="white"/>
<path d="M45.8285 21.2315V25.8971H42.959V12.4745H45.7732V13.9H45.8657C46.8036 12.7887 48.1983 12.2336 50.0496 12.2336C51.9009 12.2336 53.3601 12.6939 54.3911 13.6131C55.4215 14.533 55.937 15.8322 55.937 17.5102C55.937 19.1881 55.4215 20.5065 54.3911 21.4258C53.3607 22.3456 51.9132 22.8053 50.0496 22.8053C48.186 22.8053 46.8839 22.2811 45.921 21.2315H45.8285ZM46.6983 15.2515C46.0688 15.8072 45.754 16.56 45.754 17.5102C45.754 18.4603 46.0688 19.2131 46.6983 19.7688C47.3279 20.3244 48.2163 20.6019 49.3642 20.6019C51.7462 20.6019 52.9377 19.5715 52.9377 17.5102C52.9377 15.4488 51.7462 14.4184 49.3642 14.4184C48.2163 14.4184 47.3279 14.6959 46.6983 15.2515Z" fill="white"/>
<path d="M57.0293 9.72534H59.9727V11.7251H57.0293V9.72534ZM57.0665 12.4744H59.9361V22.4532H57.0665V12.4744Z" fill="white"/>
<path d="M77.0065 20.0743C77.494 19.7223 77.7931 19.2504 77.9042 18.6582H81.1444C80.7988 21.423 78.6199 22.8053 74.6088 22.8053C72.4735 22.8053 70.8503 22.3428 69.7396 21.4165C68.6289 20.4909 68.0732 19.1766 68.0732 17.473C68.0732 15.7694 68.6254 14.4551 69.7303 13.5294C70.8345 12.6038 72.4613 12.1406 74.6088 12.1406C78.5704 12.1406 80.7371 13.4986 81.1071 16.2139H77.9042C77.7681 15.6339 77.4603 15.1742 76.9785 14.8344C76.4974 14.4952 75.7073 14.3253 74.6088 14.3253C73.4359 14.3253 72.5538 14.5912 71.9609 15.1213C71.3687 15.6519 71.0725 16.4356 71.0725 17.4724C71.0725 18.5092 71.3687 19.2749 71.9609 19.8049C72.5532 20.3355 73.4359 20.6008 74.6088 20.6008C75.7195 20.6008 76.5183 20.4251 77.0065 20.0731V20.0743Z" fill="white"/>
<path d="M93.058 13.1313C93.9284 13.73 94.363 14.64 94.363 15.8618V22.4526H91.4935V16.8241C91.4935 16.0218 91.2468 15.4388 90.7528 15.0746C90.2589 14.7103 89.5246 14.5282 88.5501 14.5282C87.5755 14.5282 86.8064 14.7598 86.1338 15.2224C85.4612 15.6849 85.1249 16.4104 85.1249 17.3978V22.452H82.2554V9.0481H85.1249V13.7504H85.2174C86.2292 12.7386 87.6861 12.2324 89.5869 12.2324C91.0309 12.2324 92.1882 12.532 93.058 13.1307V13.1313Z" fill="white"/>
<path d="M67.1936 14.3625V12.4739H65.0589C64.4381 12.4739 63.9354 11.9706 63.9354 11.3504V9.73413H61.0659V12.4745V14.3631V19.7321C61.0659 20.4605 61.1864 21.0313 61.4266 21.4444C61.6675 21.8581 62.0684 22.1571 62.6298 22.3427C63.1913 22.5277 63.9779 22.6202 64.9903 22.6202C65.3603 22.6202 65.7525 22.6045 66.1661 22.5737C66.5792 22.5429 66.9097 22.5027 67.1564 22.4533V20.1388C66.7119 20.2255 66.1132 20.2685 65.3603 20.2685C64.8541 20.2685 64.4905 20.1946 64.2682 20.0463C64.046 19.8979 63.9349 19.6326 63.9349 19.2503V14.3625H67.193H67.1936Z" fill="white"/>
</svg>
